{"title":"Cold Blooded 2012 BRRip 480p x264 AAC - VYTO [P2PDL]","uid":9326346,"size":320079550,"categoryP":"video","categoryS":"movies","magnet":"?xt=urn:btih:46b19848165a417b5478af50a33b3930a7c33263&amp;dn=Cold+Blooded+2012+BRRip+480p+x264+AAC+-+VYTO+%5BP2PDL%5D&amp;tr=udp%3A%2F%2Ftracker.openbittorrent.com%3A80&amp;tr=udp%3A%2F%2Fopen.demonii.com%3A1337&amp;tr=udp%3A%2F%2Ftracker.coppersurfer.tk%3A6969&amp;tr=udp%3A%2F%2Fexodus.desync.com%3A6969","seeders":0,"leechers":1,"uploader":"BFAB","files":4,"time":1386645719,"description":"                                                                                                   \n                                                                                                  \n                                                                                                   \nPPPPPPPPPPPPPPPPP   222222222222222   PPPPPPPPPPPPPPPPP  DDDDDDDDDDDDD     LLLLLLLLLLL             \nP::::::::::::::::P 2::::::MAKE!::::22 P:::::::SAVE!::::P D::::SHARE!::DDD  L:::::::::L             \nP::::::PPPPPP:::::P2::::::222222:::::2P::::::PPPPPP:::::PD:::::::::::::::DDL:::::::::L             \nPP:::::P     P:::::2222222     2:::::2PP:::::P     P:::::DDD:::::DDDDD:::::LL:::::::LL             \n  P::::P     P:::::P           2:::::2  P::::P     P:::::P D:::::D    D:::::DL:::::L               \n  P::::P     P:::::P           2:::::2  P::::P     P:::::P D:::::D     D:::::L:::::L               \n  P::::PPPPPP:::::P         2222::::2   P::::PPPPPP:::::P  D:::::D     D:::::L:::::L               \n  P:::::::::::::PP     22222::::::22    P:::::::::::::PP   D:::::D     D:::::L:::::L               \n  P::::PPPPPPPPP     22::::::::222      P::::PPPPPPPPP     D:::::D     D:::::L:::::L               \n  P::::P            2:::::22222         P::::P             D:::::D     D:::::L:::::L               \n  P::::P           2:::::2              P::::P             D:::::D     D:::::L:::::L               \n  P::::P           2:::::2              P::::P             D:::::D    D:::::DL:::::L         LLLLLL\nPP::::::PP         2:::::2       22222PP::::::PP         DDD:::::DDDDD:::::LL:::::::LLLLLLLLL:::::L\nP::::::::P         2::::::2222222:::::P::::::::P         D:::::::::::::::DDL::::::::::::::::::::::L\nP::::::::P         2:::::Vitamin_X::::P::VYTO::P         D::::ViZNU:::DDD  L::::::::::::::::::::::L\nPPPPPPPPP PRiSTiNE 2222222222222222222PPPPPPPPP PRiSTiNE DDDDDDDDDDDDD     LLLLLLLLLLLLLLLLLLLLLLLL\n                                                                                                   \n                                                                                                   \n                                                                                                  \n_______ Visit us at our Semi Public Bittorrent Community ________\n  &lt;a href=&quot;\nhttp://p2pdl.com&quot; rel=&quot;nofollow&quot; target=&quot;_NEW&quot;&gt;\nhttp://p2pdl.com&lt;/a&gt;  _____________________________ &lt;a href=&quot; http://p2pdl.com&quot; rel=&quot;nofollow&quot; target=&quot;_NEW&quot;&gt; http://p2pdl.com&lt;/a&gt;\n\n\n\nCold Blooded 2012 BRRip 480p x264 AAC - VYTO\n\n\nGenre: Action | Crime \nIMDb: http://www.imdb.com/title/tt1821374/\n\n\nFormat                         : MPEG-4\nFile size                      : 300 MiB\nDuration                       : 1h 26mn\nOverall bit rate               : 486 Kbps\n\nVideo\nFormat                         : AVC\nBit rate                       : 446 Kbps\nWidth                          : 720 pixels\nHeight                         : 400 pixels\nDisplay aspect ratio           : 16:9\nFrame rate mode                : Constant\nFrame rate                     : 23.976 fps\nBit depth                      : 10 bits\nStream size                    : 273 MiB (91%)\nWriting library                : x264 core 140 r2377\n\nAudio\nFormat                         : AAC\nChannel count                  : 2 channels\nChannel positions              : Front: L R\nSampling rate                  : 48.0 KHz\nStream size                    : 24.6 MiB (8%)\nLanguage                       : English\n\nSubtitle                       : N/a\n\nSource                         : 720p.BluRay.x264-RSG\n &lt;a href=&quot;\nhttp://ultraimg.com/images/GUEJ.png&quot; rel=&quot;nofollow&quot; target=&quot;_NEW&quot;&gt;\nhttp://ultraimg.com/images/GUEJ.png&lt;/a&gt; &lt;a href=&quot;\nhttp://ultraimg.com/images/6QnY9.png&quot; rel=&quot;nofollow&quot; target=&quot;_NEW&quot;&gt;\nhttp://ultraimg.com/images/6QnY9.png&lt;/a&gt; &lt;a href=&quot;\nhttp://ultraimg.com/images/fishB.png&quot; rel=&quot;nofollow&quot; target=&quot;_NEW&quot;&gt;\nhttp://ultraimg.com/images/fishB.png&lt;/a&gt; &lt;a href=&quot;\nhttp://ultraimg.com/images/v3h01.png&quot; rel=&quot;nofollow&quot; target=&quot;_NEW&quot;&gt;\nhttp://ultraimg.com/images/v3h01.png&lt;/a&gt; &lt;a href=&quot;\nhttp://ultraimg.com/images/MlUpK.png&quot; rel=&quot;nofollow&quot; target=&quot;_NEW&quot;&gt;\nhttp://ultraimg.com/images/MlUpK.png&lt;/a&gt; &lt;a href=&quot;\nhttp://ultraimg.com/images/xyh9.png&quot; rel=&quot;nofollow&quot; target=&quot;_NEW&quot;&gt;\nhttp://ultraimg.com/images/xyh9.png&lt;/a&gt;\n\n----------------------------------------------------------------------------------------------------\n\n\nEncoded using revolutionary 10bit encoding, which enables us to provide you more crispier \nand sharper images at small sizes, just make sure you follow our instructions without a fault.\nRecommend to you to use latest version of VLC player. Install K-Lite Codec Pack or shark007 codecs\nin case of any kind of problem in playback (For non-VLC Media Player users). Alternatively, install\nCore AVC codecs, the fastest decoder that there is coupled with Community Center Codec Pack and play\non Windows Media Player Classic. Check sample to be sure.\nEnjoy!\n\nEncoder Notes:Looking For Early Access To Anything You Can Provide DVDScr, R5, DVDR, BluRay, Direct\nAudio, Music Releases and Seedboxes. We require dedicated servers, so as to do more \nand fast releases of movies.\nIf You Got anything to offer please contact us at &quot;&lt;a class=&quot;__cf_email__&quot; href=&quot;/cdn-cgi/l/email-protection&quot; data-cfemail=&quot;54242633143c21273c7a373b39&quot;&gt;[email&amp;#160;protected]&lt;/a&gt;&lt;script data-cfhash='f9e31' type=&quot;text/javascript&quot;&gt;\n/* &lt;![CDATA[ */!function(){try{var t=&quot;currentScript&quot;in document?document.currentScript:function(){for(var t=document.getElementsByTagName(&quot;script&quot;),e=t.length;e--;)if(t[e].getAttribute(&quot;data-cfhash&quot;))return t[e]}();if(t&amp;&amp;t.previousSibling){var e,r,n,i,c=t.previousSibling,a=c.getAttribute(&quot;data-cfemail&quot;);if(a){for(e=&quot;&quot;,r=parseInt(a.substr(0,2),16),n=2;a.length-n;n+=2)i=parseInt(a.substr(n,2),16)^r,e+=String.fromCharCode(i);e=document.createTextNode(e),c.parentNode.replaceChild(e,c)}t.parentNode.removeChild(t);}}catch(u){}}()/* ]]&gt; */&lt;/script&gt;&quot;.\n\nFace book Fan Page:  \n","torrent":{"xt":"urn:btih:46b19848165a417b5478af50a33b3930a7c33263","amp;dn":"Cold+Blooded+2012+BRRip+480p+x264+AAC+-+VYTO+%5BP2PDL%5D","amp;tr":["udp%3A%2F%2Ftracker.openbittorrent.com%3A80","udp%3A%2F%2Fopen.demonii.com%3A1337","udp%3A%2F%2Ftracker.coppersurfer.tk%3A6969","udp%3A%2F%2Fexodus.desync.com%3A6969"],"infoHash":"46b19848165a417b5478af50a33b3930a7c33263","infoHashBuffer":{"type":"Buffer","data":[70,177,152,72,22,90,65,123,84,120,175,80,163,59,57,48,167,195,50,99]},"announce":[],"urlList":[]}}